<svg xmlns="http://www.w3.org/2000/svg" xmlns:xlink="http://www.w3.org/1999/xlink" id="Layer_1" x="0" y="0" version="1.0" style="enable-background:new 0 0 869.5 559.5" viewBox="71.42 235.95 142.55 87.55" xml:space="preserve"><style type="text/css">.st0{fill:#00b897}.st1{fill:#76fcb2}.st2{fill:url(#SVGID_1_)}.st3{fill:none}</style><style class="darkreader darkreader--sync" media="screen"/><path d="M211.7,297.7l-30.8-53.4c-6.8-11.1-23.2-11.3-29.7,0.5l-32.4,55.6c-6,10.2,1.4,23,13.5,23h64.8 C209.3,323.4,218.4,310.2,211.7,297.7z" class="st0"/><path d="M167.2,301.9l-1.9-3.3c-1.8-3.1-5.7-9.7-5.7-9.7l-26.1-45.3c-5.2-7.9-15.8-10-23.7-4.8 c-2.5,1.6-4.5,3.9-5.8,6.6l-30.3,52.5c-4.7,8.1-1.9,18.5,6.3,23.2c2.6,1.5,5.5,2.3,8.5,2.3h108.3 C180.1,323.5,174.8,314.8,167.2,301.9z" class="st1"/><linearGradient id="SVGID_1_" x1="123.848" x2="198.718" y1="416.516" y2="444.176" gradientTransform="matrix(1 0 0 1 -13.78 -134.73)" gradientUnits="userSpaceOnUse"><stop offset="0" style="stop-color:#53e57a;stop-opacity:0;--darkreader-inline-stopcolor:#58fb84"/><stop offset="1" style="stop-color:#00a977;--darkreader-inline-stopcolor:#54ffde"/></linearGradient><path d="M167.2,301.9l-1.9-3.3c-1.8-3.1-5.7-9.7-5.7-9.7l-16.8-29.6l-24.2,41.2c-6,10.2,1.4,23,13.5,23h64.7 C180,323.4,174.8,314.8,167.2,301.9z" class="st2"/><rect width="772.5" height="126.5" x="48.5" y="216.5" class="st3"/></svg>